<svg width="57" height="61" viewBox="0 0 57 61" fill="none" xmlns="http://www.w3.org/2000/svg">
<path d="M47.9777 7.38247C44.6722 6.75223 41.2668 7.26502 37.9618 7.62587C34.669 7.98547 31.2307 8.42556 27.9683 7.57068C24.1269 6.56416 21.6967 3.77672 19.9047 0C19.4106 1.47983 18.9166 2.95952 18.4226 4.43949C15.1904 14.1205 11.9584 23.8016 8.72635 33.4826L0 59.6212L3.37004 61L11.2233 37.4769C12.6808 39.1981 14.4802 40.4481 16.7902 41.0533C20.0524 41.9076 23.491 41.4683 26.7836 41.1086C30.0883 40.7471 33.4941 40.2347 36.7996 40.8651C41.0472 41.6749 43.7916 44.4911 45.7557 48.6313C49.4822 37.4706 53.208 26.3097 56.934 15.1487C54.9696 11.0084 52.2259 8.19259 47.9777 7.38247ZM48.392 27.2537C46.7302 25.7012 44.9462 24.663 42.7953 24.2052C42.0777 26.3539 41.3603 28.5027 40.643 30.6514C42.7941 31.1094 44.5777 32.1476 46.2399 33.7C45.582 35.6705 44.924 37.6412 44.2663 39.6113C42.6045 38.0589 40.8203 37.02 38.6692 36.5629C39.3271 34.5923 39.9851 32.6217 40.643 30.6514C38.4528 30.2604 36.3142 30.2626 34.1043 30.4123C33.4465 32.3828 32.7884 34.3535 32.1307 36.3238C29.8441 36.5283 27.5652 36.8187 25.2787 37.0227C25.9365 35.0519 26.5944 33.0816 27.2522 31.1115C25.0423 31.2613 22.9036 31.2638 20.7134 30.8725C20.0555 32.843 19.3977 34.8136 18.7398 36.7838C16.589 36.3265 14.8043 35.2877 13.1429 33.735C13.8006 31.7648 14.4586 29.7941 15.1164 27.8239C16.7784 29.3766 18.5622 30.4149 20.7134 30.8725C21.4306 28.7238 22.1483 26.5748 22.8655 24.4261C20.7145 23.9695 18.9304 22.9296 17.2685 21.3778C17.986 19.2288 18.7034 17.0798 19.4208 14.9311C21.0828 16.4841 22.8667 17.5214 25.0177 17.9798C25.6755 16.0093 26.3334 14.0389 26.9912 12.0687C29.1814 12.4597 31.3204 12.4575 33.53 12.3074C32.8723 14.2777 32.2143 16.2483 31.5565 18.2186C33.843 18.0142 36.1218 17.7241 38.4084 17.5197C39.0662 15.5493 39.7243 13.5788 40.382 11.6083C42.5922 11.4585 44.7304 11.4561 46.9207 11.8473C46.2628 13.8178 45.605 15.7882 44.9471 17.7588C47.0982 18.2167 48.8818 19.2546 50.5441 20.8071C49.8269 22.956 49.1098 25.105 48.392 27.2537Z" fill="#1C1D23"/>
<path d="M29.4045 24.6646C28.6871 26.8135 27.9697 28.9622 27.2522 31.111C29.5388 30.9064 31.8178 30.6162 34.1043 30.4118C34.8217 28.2633 35.5391 26.1144 36.2564 23.9657C33.9697 24.1702 31.691 24.4604 29.4045 24.6646Z" fill="#1C1D23"/>
<path d="M29.4039 24.6648C30.1214 22.5161 30.8388 20.3671 31.5562 18.2185C29.3457 18.368 27.2078 18.3705 25.0171 17.9797C24.2998 20.1285 23.5824 22.2773 22.865 24.426C25.0553 24.8175 27.1938 24.8151 29.4039 24.6648Z" fill="#1C1D23"/>
<path d="M38.4085 17.5196C37.6911 19.6683 36.9737 21.817 36.2563 23.9658C38.4665 23.8164 40.6047 23.8139 42.7951 24.2049C43.5124 22.0562 44.2299 19.9074 44.9472 17.7586C42.757 17.3675 40.6186 17.3694 38.4085 17.5196Z" fill="#1C1D23"/>
</svg>
