<svg width="37" height="40" viewBox="0 0 37 40" fill="none" xmlns="http://www.w3.org/2000/svg">
<path d="M31.1795 5.1512C29.0314 4.74162 26.8183 5.07487 24.6704 5.30938C22.5305 5.54308 20.2961 5.82908 18.1759 5.27352C15.6795 4.6194 14.1002 2.80791 12.9356 0.353516C12.6145 1.31522 12.2934 2.27684 11.9724 3.23863C9.87189 9.5301 7.77147 15.8216 5.67104 22.113L0 39.0999L2.19011 39.9959L7.29375 24.7088C8.24094 25.8274 9.41033 26.6397 10.9115 27.033C13.0315 27.5882 15.2662 27.3028 17.406 27.069C19.5536 26.834 21.767 26.501 23.9152 26.9107C26.6755 27.437 28.4591 29.2672 29.7355 31.9578C32.1572 24.7047 34.5785 17.4516 37 10.1983C35.7234 7.50759 33.9403 5.67767 31.1795 5.1512ZM31.4488 18.065C30.3688 17.0561 29.2094 16.3814 27.8116 16.0839C27.3453 17.4803 26.8791 18.8767 26.4128 20.2731C27.8108 20.5707 28.9699 21.2454 30.0501 22.2543C29.6226 23.5349 29.195 24.8156 28.7676 26.0959C27.6876 25.087 26.5281 24.4119 25.1302 24.1148C25.5577 22.8342 25.9853 21.5536 26.4128 20.2731C24.9895 20.019 23.5997 20.0204 22.1635 20.1177C21.7361 21.3983 21.3084 22.679 20.8809 23.9595C19.3949 24.0924 17.914 24.2811 16.428 24.4137C16.8555 23.1329 17.2831 21.8524 17.7105 20.5721C16.2744 20.6695 14.8845 20.6711 13.4611 20.4168C13.0336 21.6974 12.6061 22.978 12.1785 24.2584C10.7808 23.9612 9.62096 23.2861 8.54124 22.2771C8.96869 20.9967 9.3963 19.716 9.82374 18.4356C10.9039 19.4446 12.0631 20.1194 13.4611 20.4168C13.9272 19.0204 14.3936 17.6238 14.8597 16.2274C13.4618 15.9307 12.3024 15.2549 11.2224 14.2464C11.6887 12.8498 12.1549 11.4532 12.6211 10.0568C13.7012 11.0662 14.8605 11.7402 16.2584 12.0382C16.6859 10.7576 17.1134 9.47707 17.5409 8.19666C18.9643 8.45078 20.3543 8.44933 21.7903 8.35177C21.3629 9.63227 20.9353 10.9129 20.5078 12.1934C21.9937 12.0605 23.4747 11.8719 24.9607 11.7391C25.3881 10.4586 25.8158 9.17806 26.2433 7.89747C27.6796 7.80009 29.0692 7.79856 30.4926 8.05276C30.0651 9.33335 29.6375 10.6138 29.21 11.8945C30.608 12.1921 31.7671 12.8666 32.8474 13.8756C32.3813 15.2721 31.9152 16.6686 31.4488 18.065Z" fill="white"/>
<path d="M19.1092 16.3827C18.6429 17.7792 18.1767 19.1756 17.7104 20.572C19.1965 20.4391 20.6775 20.2505 22.1635 20.1177C22.6297 18.7214 23.0959 17.3249 23.5621 15.9285C22.076 16.0613 20.5951 16.25 19.1092 16.3827Z" fill="white"/>
<path d="M19.1091 16.3826C19.5754 14.9862 20.0416 13.5896 20.5078 12.1933C19.0712 12.2904 17.6819 12.292 16.2582 12.0381C15.792 13.4345 15.3258 14.831 14.8596 16.2274C16.2831 16.4817 17.6728 16.4802 19.1091 16.3826Z" fill="white"/>
<path d="M24.9606 11.7392C24.4944 13.1356 24.0282 14.532 23.562 15.9285C24.9983 15.8314 26.3879 15.8298 27.8114 16.0839C28.2775 14.6875 28.7438 13.291 29.21 11.8946C27.7866 11.6404 26.397 11.6417 24.9606 11.7392Z" fill="white"/>
</svg>
