<svg width="80" height="80" viewBox="0 0 80 80" fill="none" xmlns="http://www.w3.org/2000/svg">
<mask id="mask0_240_148" style="mask-type:alpha" maskUnits="userSpaceOnUse" x="0" y="0" width="80" height="80">
<rect width="80" height="80" fill="#D9D9D9"/>
</mask>
<g mask="url(#mask0_240_148)">
<path fill-rule="evenodd" clip-rule="evenodd" d="M40.0007 77C60.4351 77 77 60.4351 77 39.9993C77 19.5663 60.4351 3 40.0007 3C19.5663 3 3 19.5663 3 40.0007C3 60.4351 19.5663 77 40.0007 77ZM40.0007 76.2588C60.0252 76.2588 76.2588 60.0252 76.2588 40.0007C76.2588 19.9748 60.0266 3.74116 40.0007 3.74116C19.9748 3.74116 3.74116 19.9748 3.74116 40.0007C3.74116 60.0239 19.9748 76.2588 40.0007 76.2588ZM66.6544 40.0007C66.6544 54.7214 54.72 66.6544 40.0007 66.6544C25.28 66.6544 13.3456 54.7214 13.3456 40.0007C13.3456 25.28 25.28 13.3456 40.0007 13.3456C54.72 13.3456 66.6544 25.28 66.6544 40.0007ZM12.3929 41.5868L11.1275 41.0412L11.1607 38.2908L12.4381 37.8078L12.4634 35.6775L5.11303 38.4824L5.08642 40.6633L12.3676 43.7065L12.3929 41.5868ZM14.0029 26.5055L13.0835 28.717L7.81553 26.5254L7.04776 28.3697L13.8033 31.18L15.4906 27.1255L14.0029 26.5055ZM15.3495 17.6542L16.2517 18.4792L17.73 16.8611L18.9196 17.9482L17.4413 19.5663L19.5623 21.5037L18.2144 22.978L12.8134 18.0427L15.7886 14.7853L16.9782 15.8711L15.3495 17.6542ZM25.4423 15.0661L25.5634 16.438L23.6859 17.4213L22.9075 9.56929L24.8395 8.55669L30.7981 13.6956L28.9112 14.6842L27.8787 13.7887L25.4423 15.0661ZM41.4284 12.2106L38.9495 12.4075L36.8484 9.75159L36.8285 9.75292L37.0507 12.5565L35.0601 12.7136L34.4812 5.42174L37.4565 5.18622C38.9708 5.06513 40.1736 5.66125 40.2961 7.21941C40.3759 8.22536 39.8556 9.14349 38.7831 9.41228L41.4284 12.2106ZM53.758 11.4255C53.0328 13.6809 50.8226 14.7228 48.4741 13.967C46.1269 13.2099 44.9426 11.0756 45.6678 8.82148C46.3464 6.7151 48.7628 5.86217 50.8679 6.53946C52.9729 7.21675 54.4353 9.32046 53.758 11.4255ZM61.4743 12.1933L62.906 13.5399L61.3598 17.4572L65.2426 15.7421L66.689 17.1046L62.8036 23.618L61.3745 22.2249L63.5447 18.4073L63.5301 18.394L59.2987 20.1943L58.7199 19.6501L60.3246 15.3748L60.31 15.3615L56.692 17.7872L55.2283 16.442L61.4743 12.1933ZM70.8246 27.1708L69.6949 27.6392L70.5584 29.7189L69.0708 30.3363L68.2072 28.2566L67.0416 28.7396L67.9518 30.9338L66.4641 31.5499L64.7902 27.5128L71.5471 24.7091L73.2224 28.7462L71.7347 29.3623L70.8246 27.1708ZM71.6349 43.2155C69.2691 43.298 67.5393 41.5735 67.4528 39.1078C67.3703 36.6435 68.9763 34.8032 71.3435 34.7208C73.5537 34.6462 75.1757 36.6289 75.2516 38.839C75.3287 41.0479 73.8464 43.1383 71.6349 43.2155ZM7.36046 39.6214V39.6001L9.69969 38.8124L9.6784 40.4744L7.36046 39.6214ZM24.9047 11.0756L24.922 11.0662L26.725 12.7495L25.2534 13.5212L24.9047 11.0756ZM36.9243 8.5181L36.7313 8.53407L36.5876 6.71377L36.7806 6.70047C37.4299 6.64857 38.1711 6.70579 38.2336 7.49884C38.2961 8.29322 37.5736 8.46754 36.9243 8.5181ZM47.5329 10.3135C47.5125 10.0272 47.5497 9.73978 47.6424 9.46816C47.9525 8.50745 49.166 7.92863 50.3024 8.29455C51.4374 8.66048 52.0854 9.83808 51.7767 10.7988C51.6933 11.0736 51.5557 11.3289 51.3719 11.5496C51.1881 11.7702 50.9619 11.9518 50.7066 12.0834C50.4514 12.2151 50.1724 12.2941 49.886 12.316C49.5997 12.3378 49.3118 12.302 49.0396 12.2106C48.7654 12.1259 48.5109 11.9871 48.2913 11.8023C48.0717 11.6175 47.8915 11.3905 47.7612 11.1348C47.6309 10.8791 47.5533 10.5998 47.5329 10.3135ZM70.5723 36.9839C70.8347 36.8677 71.1178 36.8054 71.4047 36.8005C72.4133 36.7646 73.3687 37.7107 73.41 38.9029C73.4512 40.0938 72.5624 41.1024 71.5538 41.137C71.2671 41.1522 70.9803 41.1097 70.7104 41.012C70.4404 40.9143 70.1929 40.7633 69.9824 40.5681C69.7719 40.3729 69.6028 40.1374 69.4851 39.8756C69.3673 39.6137 69.3034 39.3309 69.297 39.0439C69.284 38.7572 69.3286 38.4708 69.4282 38.2017C69.5278 37.9325 69.6804 37.6861 69.8769 37.4769C70.0734 37.2677 70.3098 37.1001 70.5723 36.9839ZM40.312 65.9646V65.9651H40.2628L40.312 65.9646ZM40.312 65.9646L40.3107 14.0362C54.4818 14.1772 65.9651 25.7483 65.9651 40.0007C65.9651 54.2365 54.515 65.7961 40.312 65.9646ZM14.2401 43.2807L14.2398 43.278V43.2807H14.2401ZM14.2401 43.2807C15.101 50.0691 18.6106 56.2421 24.0039 60.4537L23.9999 43.2807H14.2401ZM23.9999 35.41L23.9879 19.5596C19.0646 23.4211 15.5704 28.9911 14.4341 35.4074L23.9999 35.41ZM31.8692 35.4087H39.6893V14.0362C37.0337 14.0647 34.3984 14.5018 31.8759 15.3322L31.8692 35.4087ZM31.8652 64.6638C34.3907 65.4979 37.0298 65.9368 39.6893 65.9651V43.2793H31.8692L31.8652 64.6638ZM47.6065 24.9832H57.0486V23.9999H47.6065V24.9832ZM47.6065 23.1802H57.0486V22.4271H47.6065V23.1802ZM54.2623 22.0026C54.4184 22.0026 54.5709 21.9564 54.7007 21.8697C54.8304 21.783 54.9316 21.6597 54.9913 21.5155C55.051 21.3714 55.0666 21.2127 55.0362 21.0596C55.0057 20.9066 54.9306 20.766 54.8202 20.6556C54.7099 20.5453 54.5693 20.4701 54.4162 20.4397C54.2632 20.4092 54.1045 20.4249 53.9603 20.4846C53.8162 20.5443 53.6929 20.6454 53.6062 20.7752C53.5195 20.905 53.4732 21.0575 53.4732 21.2136C53.4736 21.4227 53.5568 21.6232 53.7047 21.7711C53.8526 21.919 54.0531 22.0023 54.2623 22.0026ZM50.82 60.4391C49.7422 60.4391 48.8706 59.6327 48.8706 58.5562C48.8706 57.4824 49.7422 56.5443 50.82 56.5443L54.6216 56.5456C55.0327 56.5456 55.3641 56.213 55.3641 55.8018C55.3648 55.6035 55.2872 55.4128 55.1482 55.2713C55.0092 55.1298 54.8199 55.0488 54.6216 55.046H48.5233C47.5764 55.0457 46.6683 54.6693 45.9988 53.9995C45.3293 53.3298 44.9532 52.4216 44.9532 51.4746C44.9532 49.504 46.5513 47.9857 48.5233 47.9857L55.9974 47.9804C56.4592 47.9804 56.8331 47.7382 56.8331 47.2792C56.8341 47.0556 56.747 46.8407 56.5905 46.681C56.4341 46.5213 56.221 46.4298 55.9974 46.4263H48.4581C47.7417 46.4422 47.0294 46.3149 46.3629 46.0517C45.6965 45.7886 45.0892 45.395 44.577 44.894C44.0647 44.393 43.6577 43.7947 43.3798 43.1342C43.1019 42.4737 42.9588 41.7644 42.9588 41.0479C42.9588 40.3313 43.1019 39.622 43.3798 38.9615C43.6577 38.3011 44.0647 37.7028 44.577 37.2018C45.0892 36.7008 45.6965 36.3071 46.3629 36.044C47.0294 35.7809 47.7417 35.6535 48.4581 35.6695L55.7034 35.6748C56.2662 35.6748 56.7226 35.1851 56.7226 34.6223C56.7226 34.0581 56.2662 33.635 55.7034 33.635L47.5387 33.6389C47.9325 31.9344 49.0476 31.671 50.0296 31.6723H53.8325C53.9362 31.6725 54.0389 31.6522 54.1347 31.6126C54.2305 31.573 54.3175 31.5149 54.3908 31.4416C54.4641 31.3683 54.5223 31.2812 54.5619 31.1854C54.6014 31.0896 54.6217 30.9869 54.6216 30.8832C54.6216 30.4494 54.2689 30.162 53.8325 30.162H50.0296C48.3916 30.162 47.6052 28.7196 47.5387 27.9346H51.4733C51.8006 26.8847 52.4566 26.3604 53.1778 26.3604H57.3746C58.817 26.3604 59.4065 25.4423 59.5382 25.0484C60.5216 25.5075 64.061 28.3271 64.061 33.0482C64.061 37.7692 59.8656 40.1949 57.2416 40.2136H48.4554C48.2342 40.2136 48.022 40.3015 47.8655 40.4579C47.709 40.6144 47.6211 40.8266 47.6211 41.0479C47.6211 41.2691 47.709 41.4813 47.8655 41.6378C48.022 41.7943 48.2342 41.8822 48.4554 41.8822L56.7173 41.8755C59.3293 41.8755 61.4463 44.0764 61.4463 46.6871C61.4463 49.2991 59.3293 51.3509 56.7173 51.3509L48.848 51.3416C48.6389 51.3416 48.4384 51.4246 48.2905 51.5725C48.1427 51.7203 48.0596 51.9209 48.0596 52.13C48.0596 52.3391 48.1427 52.5396 48.2905 52.6875C48.4384 52.8353 48.6389 52.9184 48.848 52.9184L54.8158 52.9237C56.2236 52.9237 57.3653 54.0654 57.3653 55.4745C57.3653 56.885 56.2236 58.008 54.8158 58.008L51.2085 58.0186C51.0486 58.0186 50.8953 58.0822 50.7823 58.1952C50.6692 58.3082 50.6057 58.4616 50.6057 58.6214C50.6057 58.7813 50.6692 58.9346 50.7823 59.0476C50.8953 59.1607 51.0486 59.2242 51.2085 59.2242H53.9789C54.9462 59.2282 56.028 60.6533 53.9469 61.441C53.9642 61.0312 53.8977 60.4404 53.0288 60.4404C52.1639 60.4417 50.82 60.4391 50.82 60.4391ZM46.3757 34.5571C46.2958 33.8026 46.6724 31.6404 48.2133 30.9192C46.6724 30.198 46.2453 27.9359 46.3757 27.3105L44.2134 25.8189C44.1424 25.7478 44.0581 25.6915 43.9653 25.6531C43.8724 25.6146 43.773 25.5948 43.6725 25.5948C43.5721 25.5948 43.4726 25.6146 43.3798 25.6531C43.287 25.6915 43.2027 25.7478 43.1316 25.8189C43.0606 25.8899 43.0042 25.9742 42.9658 26.067C42.9274 26.1599 42.9076 26.2593 42.9076 26.3598C42.9076 26.4602 42.9274 26.5597 42.9658 26.6525C43.0042 26.7453 43.0606 26.8296 43.1316 26.9007L44.5248 27.868C45.203 28.3206 45.0858 29.0603 44.988 29.6778L44.9839 29.7043C44.8867 30.3284 44.2294 30.033 44.0325 29.8028C43.8054 29.576 43.5161 29.4217 43.2013 29.3592C42.8866 29.2968 42.5603 29.329 42.2639 29.4519C41.9674 29.5748 41.714 29.7828 41.5357 30.0496C41.3574 30.3165 41.2622 30.6302 41.2621 30.9511C41.2621 31.8479 41.9886 32.5425 42.8855 32.5425C43.3339 32.5425 43.7397 32.3602 44.0325 32.0662C44.2307 31.836 44.8867 31.5419 44.9839 32.1646L44.9881 32.1916C45.0859 32.809 45.2028 33.5471 44.5248 33.9996L43.1316 34.9682C43.0559 35.0382 42.995 35.1227 42.9527 35.2167C42.9104 35.3107 42.8876 35.4123 42.8856 35.5154C42.8835 35.6185 42.9024 35.7209 42.9409 35.8165C42.9794 35.9121 43.0369 35.999 43.1099 36.0718C43.1828 36.1447 43.2697 36.2021 43.3654 36.2405C43.461 36.2789 43.5635 36.2976 43.6666 36.2954C43.7696 36.2933 43.8712 36.2703 43.9652 36.2279C44.0592 36.1855 44.1436 36.1246 44.2134 36.0487L46.3757 34.5571Z" fill="white"/>
</g>
</svg>
