<svg width="80" height="80" viewBox="0 0 80 80" fill="none" xmlns="http://www.w3.org/2000/svg">
<mask id="mask0_240_150" style="mask-type:alpha" maskUnits="userSpaceOnUse" x="0" y="0" width="80" height="80">
<rect width="80" height="80" fill="#D9D9D9"/>
</mask>
<g mask="url(#mask0_240_150)">
<mask id="mask1_240_150" style="mask-type:alpha" maskUnits="userSpaceOnUse" x="0" y="18" width="80" height="44">
<rect y="18" width="80" height="43.9619" fill="#D9D9D9"/>
</mask>
<g mask="url(#mask1_240_150)">
<path d="M33.4605 54.5507C35.4186 52.9362 36.9949 50.9087 38.0764 48.6135C39.1579 46.3184 39.7179 43.8126 39.7161 41.2757C39.7161 40.1164 40.0238 39.0217 40.5684 38.0823C40.8207 37.641 41.1284 37.2305 41.4761 36.8599C42.5167 35.7495 43.9178 35.0439 45.4301 34.8688L45.4593 34.8658C45.6962 34.8427 45.9886 34.7397 46.0516 34.7166C46.1313 34.6825 46.2059 34.6375 46.2732 34.5829V24.0262C42.3838 24.0262 38.9053 25.2409 36.0652 27.3058C35.7575 27.5272 35.4575 27.7624 35.1652 27.9992C33.2071 29.6137 31.6308 31.6412 30.5492 33.9363C29.4677 36.2314 28.9078 38.7373 28.9096 41.2742C28.9096 42.4335 28.6019 43.5282 28.0573 44.4676C27.8034 44.909 27.4988 45.3192 27.1495 45.6899C26.5492 46.3325 25.8229 46.8448 25.0159 47.1947C24.2088 47.5447 23.3384 47.7249 22.4586 47.7241H22.4479C18.8908 47.7241 15.9954 44.8304 15.9954 41.2757C15.9954 37.721 18.8908 34.8273 22.4479 34.8273C24.3018 34.8273 25.9664 35.6084 27.1495 36.8615C28.0007 33.222 29.8786 29.903 32.5605 27.2981C29.6214 25.1638 26.0809 24.0156 22.4479 24.0186C12.9261 24.0186 5.17969 31.76 5.17969 41.2757C5.17969 50.7914 12.9261 58.5328 22.4479 58.5328H22.4679C26.6634 58.5328 30.5066 57.0291 33.4867 54.5307L33.4605 54.5507ZM48.0625 50.8529C47.965 50.7208 47.857 50.5969 47.7394 50.4824C47.3657 50.1182 46.9196 49.8363 46.4301 49.6552C46.1856 49.5667 45.9547 49.4446 45.7439 49.2923C45.4993 49.1109 45.1608 48.7727 45.0347 48.4882C44.9716 48.3391 44.7824 47.8886 44.6962 47.7471C44.547 47.5103 44.1593 47.6841 44.2777 47.9839C44.3808 48.2437 44.507 48.5666 44.5377 48.8034C44.5931 49.2062 44.207 49.3323 43.9931 49.34C43.4562 49.3631 43.1485 49.3631 42.6131 49.4261C41.8073 49.5251 40.9952 49.5621 40.1838 49.5368C39.2053 51.674 37.5575 53.8649 36.0652 55.2518C38.8978 57.3078 42.2915 58.4494 45.7916 58.5236C46.2732 58.5236 46.2732 58.5313 46.2732 58.5313V54.44C46.1354 54.496 45.9834 54.5072 45.8389 54.4718C45.6945 54.4365 45.5648 54.3565 45.4685 54.2432C45.3661 54.1325 45.2763 54.0108 45.2008 53.8803C45.1147 53.7312 45.0424 53.5651 44.9639 53.3991C44.8054 53.0516 44.7901 53.0362 44.4116 53.0516L44.3762 53.0531C44.2936 53.053 44.2119 53.0354 44.1366 53.0015C44.0613 52.9676 43.994 52.9181 43.9393 52.8563C43.6727 52.5523 43.4377 52.2221 43.2377 51.8708C43.1977 51.84 43.3562 51.7293 43.4269 51.7216C43.8131 51.6509 44.2085 51.5879 44.6024 51.5248C44.847 51.4848 45.0285 51.5955 45.1624 51.7923C45.2578 51.9261 45.3285 52.0768 45.4147 52.2182C45.4547 52.289 45.4932 52.3597 45.5255 52.4396C45.707 52.8502 46.0378 52.9916 46.4639 52.9286C47.0947 52.8425 47.6163 52.5427 48.0409 52.0614C48.4979 51.5171 48.404 51.2973 48.064 50.8545L48.0625 50.8529ZM46.9178 52.0045C46.7975 52.0676 46.6666 52.1077 46.5316 52.1229C46.287 52.1537 46.1762 52.0922 46.0747 51.8708C45.9562 51.6109 45.8455 51.3511 45.8301 51.0343C46.1855 50.9482 46.5316 50.8852 46.8793 50.8683C47.0455 51.042 47.1317 51.1912 47.1717 51.3726C47.2424 51.6401 47.164 51.8692 46.9193 52.003L46.9178 52.0045ZM49.1117 38.1914C49.7117 38.6096 50.2641 39.0663 50.6502 39.7044C50.7364 39.8535 50.8472 39.9012 50.9502 39.8535C51.0918 39.7905 51.0764 39.6567 51.0918 39.5537C51.0805 39.2619 50.9964 38.9776 50.8472 38.7265C50.4956 38.106 49.9975 37.5808 49.3963 37.1967C49.2656 37.121 49.1281 37.0577 48.9856 37.0075C48.9242 36.9863 48.8597 36.9754 48.7948 36.9753H48.7794C48.6132 36.9753 48.4871 37.046 48.4086 37.1874C48.3302 37.3289 48.3302 37.4796 48.424 37.6133C48.4899 37.7018 48.5669 37.7814 48.6532 37.8501C48.7948 37.9685 48.9533 38.0792 49.1102 38.1884L49.1117 38.1914ZM55.8719 48.4252C55.7058 48.4728 55.5334 48.5359 55.3904 48.6374C55.098 48.8418 54.9965 49.1493 55.0596 49.4968C55.0827 49.6383 55.1627 49.7013 55.4304 49.7259C56.0765 49.6783 56.2273 49.4184 56.2273 48.8741C56.2273 48.8342 56.2196 48.7557 56.2119 48.6696C56.1888 48.4728 56.0611 48.3698 55.8719 48.4252Z" fill="white"/>
<path d="M48.3775 24.0324V34.2646L48.5743 34.3046C48.7404 34.3445 48.8896 34.4076 48.9372 34.423C49.0326 34.4629 49.1187 34.5091 49.3232 34.6275C50.475 35.3762 51.7206 35.9359 52.9185 36.5986C53.6366 36.9998 54.3609 37.3796 55.039 37.8516C55.7018 38.3175 56.34 38.8141 56.852 39.4445C57.2457 39.9258 57.5932 40.4301 57.8147 41.0128C58.1453 41.8953 58.4697 42.7794 58.785 43.6696C59.0449 44.403 59.2817 45.1518 59.6046 45.8606C59.8799 46.4756 60.1966 47.066 60.5903 47.6103C61.1577 48.4067 61.8051 48.9971 62.6724 49.4399C62.6724 49.4399 62.9323 49.5583 62.8846 49.6137C62.474 49.772 62.2926 49.7797 61.9543 49.669C61.6554 49.5652 61.3851 49.3924 61.1654 49.1647C60.9686 48.9756 60.7871 48.7711 60.5903 48.5728C60.2751 48.2653 59.9598 47.9655 59.6369 47.6656C59.5437 47.5846 59.437 47.5206 59.3217 47.4765C59.2866 47.4616 59.2483 47.4559 59.2104 47.4601C59.1725 47.4643 59.1364 47.4783 59.1054 47.5005C59.0745 47.5228 59.0499 47.5527 59.0339 47.5872C59.0179 47.6218 59.0111 47.6599 59.0141 47.6979V47.6964C59.0214 47.8176 59.0539 47.9359 59.1094 48.0439C59.2279 48.2407 59.3693 48.4298 59.5108 48.6112C59.7476 48.9264 59.9844 49.2493 60.2443 49.5491C60.4488 49.7859 60.678 50.0057 60.9071 50.2118C61.0732 50.3532 61.2546 50.4716 61.4268 50.6054C61.4899 50.653 61.5452 50.7084 61.6313 50.7945C61.5452 50.8252 61.4976 50.8498 61.4499 50.8575C61.0716 50.8975 60.7164 50.8022 60.3704 50.6607C59.9925 50.4971 59.6332 50.2935 59.2986 50.0534C59.0864 49.9043 58.8726 49.7459 58.6527 49.6121C58.3682 49.4384 58.1868 49.4538 57.9438 49.6675C57.8026 49.7971 57.671 49.9369 57.5502 50.0857C57.4475 50.2152 57.315 50.318 57.1639 50.3852C57.0129 50.4524 56.8479 50.482 56.6829 50.4716C56.4779 50.4626 56.2725 50.4652 56.0678 50.4793C55.5752 50.5227 55.1011 50.6881 54.6884 50.9605C54.5393 51.0559 54.3886 51.1573 54.2317 51.245C54.0295 51.3609 53.8188 51.4612 53.6012 51.5448C53.4884 51.5832 53.3687 51.597 53.2501 51.5853C53.1315 51.5736 53.0167 51.5367 52.9136 51.477C52.8105 51.4173 52.7213 51.3362 52.6521 51.2391C52.5829 51.1421 52.5353 51.0314 52.5125 50.9144C52.4894 50.796 52.4971 50.67 52.4894 50.5439C52.4894 50.4332 52.4971 50.3225 52.4894 50.2133C52.4741 49.9458 52.3941 49.8827 52.1265 49.9212C51.779 49.9612 51.7006 49.8658 51.819 49.5353C51.9374 49.197 52.0789 48.8726 52.205 48.542C52.4095 48.0054 52.6694 47.4934 52.9938 47.0122C53.143 46.7831 53.2691 46.5386 53.3967 46.2942C53.4675 46.1527 53.5151 45.9867 53.5551 45.8283C53.5859 45.6868 53.5243 45.5608 53.4213 45.5208C53.3029 45.4731 53.2091 45.5131 53.1215 45.5915C52.9 45.796 52.6724 45.9928 52.4664 46.2142C52.0283 46.6748 51.4361 46.9582 50.8025 47.0107C50.6134 47.0337 50.4242 47.0737 50.2351 47.0968C50.1398 47.1044 50.046 47.0968 49.9429 47.0968C49.9122 46.9307 49.9829 46.8123 50.0214 46.6862C50.2259 46.0482 50.3597 45.3932 50.4319 44.7228C50.495 44.1862 50.4243 43.6589 50.3058 43.1299C50.2806 43.0238 50.238 42.9225 50.1797 42.8301C50.0844 42.6718 49.8876 42.6641 49.7538 42.7978C49.7149 42.8373 49.6844 42.8842 49.6641 42.9357C49.6437 42.9872 49.634 43.0423 49.6354 43.0977L49.6508 43.5466C49.6585 44.1539 49.62 44.752 49.4924 45.344C49.4325 45.5834 49.3617 45.8199 49.2802 46.0528C49.1727 46.3487 48.9942 46.6137 48.7604 46.8246C48.5866 46.983 48.4129 47.1321 48.2483 47.2982C47.8624 47.6841 47.8147 48.15 48.1376 48.5912C48.4682 49.0479 48.7927 49.506 49.1464 49.9396C49.4386 50.3025 49.58 50.6961 49.58 51.1466C49.58 51.2727 49.5954 51.3911 49.6108 51.5171C49.6262 51.5802 49.6661 51.6355 49.7138 51.7293C49.7922 51.674 49.8722 51.6432 49.903 51.5802C50.1628 51.0912 50.2413 50.5716 50.1551 50.0273C50.123 49.8946 50.0667 49.769 49.9891 49.6567C49.7523 49.3092 49.5001 48.9633 49.2556 48.6158L48.9403 48.0408C49.2786 47.7333 49.4139 47.7564 49.6585 48.1192C50.0214 48.6481 50.3597 49.1909 50.7072 49.7351C50.8963 50.0426 50.9363 50.3655 50.8656 50.7207C50.7872 51.0912 50.7318 51.4772 50.6534 51.9353C50.5673 52.3535 50.4873 52.4396 50.046 52.432C49.723 52.432 49.4862 52.5427 49.3278 52.8102C49.1854 53.0474 48.9654 53.2283 48.705 53.3222L48.3975 53.4559V58.5328L49.2248 58.5252C58.2837 58.3038 65.6249 50.9021 65.6879 41.7723C65.6879 41.6063 65.6802 41.4417 65.6879 41.2757V35.1579H70.8055L74.8191 24.0186H48.3821L48.3775 24.0324Z" fill="white"/>
<path d="M56.8672 45.8033C56.9072 45.9218 56.9626 46.0326 57.0164 46.1341C57.0718 46.2295 57.1657 46.2372 57.2687 46.2295C57.3795 46.2218 57.4503 46.1587 57.4903 46.0633C57.5133 46.0002 57.5133 45.9295 57.5302 45.851C57.4441 45.2834 57.318 44.7234 56.8365 44.3281C56.3604 43.9367 55.9074 43.5181 55.4797 43.0743C55.3458 42.9635 55.212 42.9635 55.0689 43.0666C55.0134 43.1072 54.9632 43.1548 54.9197 43.2081C54.6274 43.5789 54.4382 44.005 54.3275 44.4619C54.3121 44.525 54.3121 44.5957 54.3121 44.6665C54.3198 44.8403 54.3828 44.9419 54.5167 44.9819C54.6582 45.0219 54.792 44.9895 54.8797 44.8711C54.9505 44.7757 55.0136 44.6665 55.092 44.5711C55.1782 44.4604 55.2889 44.4219 55.4151 44.4757C55.5181 44.5157 55.6197 44.5542 55.715 44.6096C55.9273 44.7511 56.1411 44.9096 56.3457 45.0665C56.5919 45.2503 56.7738 45.5071 56.8657 45.8003L56.8672 45.8033ZM12.5006 65.7358H11.996V72.7646H16.0187V72.26H12.5006V65.7358ZM61.513 66.6112C61.2399 66.3303 60.9121 66.1084 60.5499 65.9591C60.1876 65.8099 59.7987 65.7365 59.407 65.7435H56.2042V72.7631H58.0579V71.6908H59.407L59.5331 71.6831L60.1715 72.7631H62.3329L61.2991 71.0124C62.0252 70.4125 62.3883 69.6479 62.3883 68.7095C62.3883 67.8972 62.096 67.1957 61.513 66.6112ZM60.2039 69.5064C60.1006 69.6124 59.9765 69.6959 59.8393 69.7515C59.7022 69.8071 59.5549 69.8337 59.407 69.8294H58.0579V67.5896H59.407C59.7147 67.5896 59.9823 67.7003 60.2039 67.9203C60.4254 68.1403 60.5269 68.4018 60.5269 68.7172C60.5318 68.8641 60.5055 69.0103 60.4498 69.1464C60.3942 69.2824 60.3103 69.4051 60.2039 69.5064ZM19.8506 65.7435H16.8848V72.7631H17.3893V70.5309H19.8506C20.506 70.5309 21.0736 70.294 21.5382 69.8294C22.0028 69.3648 22.2397 68.7956 22.2397 68.1418C22.2397 67.4865 22.0028 66.9112 21.5382 66.4543C21.3206 66.2266 21.0585 66.0462 20.7682 65.9241C20.4778 65.8021 20.1655 65.7396 19.8506 65.7435ZM21.1921 69.4741C21.0188 69.6544 20.8103 69.7972 20.5796 69.8935C20.3488 69.9899 20.1007 70.0377 19.8506 70.034H17.3893V66.2558H19.8506C20.3706 66.2558 20.8213 66.445 21.1921 66.8081C21.5628 67.1711 21.7443 67.6203 21.7443 68.1495C21.7443 68.6618 21.5628 69.1033 21.1921 69.4741ZM8.05173 65.7435H7.70407L5.17969 72.7631H5.73194L6.53649 70.5309H9.57313L10.3777 72.7631H10.9222L8.39785 65.7343H8.05019L8.05173 65.7435ZM6.71032 70.0263L8.05173 66.3035L9.39315 70.0263H6.71032ZM63.7451 65.7435H65.5987V72.7723H63.7451V65.7435ZM32.7479 65.7435H32.4003L29.8759 72.7631H30.4204L31.225 70.5309H34.2616L35.0662 72.7631H35.6107L33.0863 65.7343H32.7479V65.7435ZM31.4065 70.0263L32.7479 66.3035L34.0893 70.0263H31.4065ZM41.5179 65.7435H34.9L35.5707 67.5973H37.2829V72.7631H39.1442V67.5973H40.8564L41.5179 65.7435ZM52.7968 69.6233C52.7968 70.3878 52.1815 71.0032 51.417 71.0032C50.6524 71.0032 50.0371 70.3878 50.0371 69.6233V65.742H48.1834V69.6233C48.1834 71.4062 49.6341 72.8569 51.417 72.8569C53.1999 72.8569 54.6505 71.4062 54.6505 69.6233V65.742H52.7968V69.6233ZM28.3222 70.0263H23.7718V65.7358H23.2749V72.7646H23.7718V70.5324H28.3237V72.7646H28.8283V65.7358H28.3237L28.3222 70.0263ZM43.3331 65.7435L40.801 72.7631H42.6624L42.9547 71.9585H45.5575L45.8575 72.7631H47.7265L45.1945 65.7343H43.3331V65.7435ZM43.5454 70.2632L44.2638 68.1172L44.9729 70.2632H43.5454Z" fill="white"/>
</g>
</g>
</svg>
