<svg width="80" height="80" viewBox="0 0 80 80" fill="none" xmlns="http://www.w3.org/2000/svg">
<mask id="mask0_240_149" style="mask-type:alpha" maskUnits="userSpaceOnUse" x="0" y="0" width="80" height="80">
<rect width="80" height="80" fill="#D9D9D9"/>
</mask>
<g mask="url(#mask0_240_149)">
<path d="M40.4998 44.9603C40.3554 44.9603 40.2494 45.0566 40.2482 45.0587C40.2418 45.0633 37.6855 47.238 37.6855 47.238C36.7429 48.0492 35.4913 47.7097 35.3576 47.6701C35.3576 47.6701 24.4308 45.0127 24.4293 45.0118C22.3441 44.451 21.9298 43.846 21.6107 43.1112C21.6107 43.1112 21.4252 42.6545 20.9714 42.5348C20.9714 42.5348 7.61422 39.0389 7.613 39.0389C7.06791 38.889 6.76794 38.7518 6.55364 38.3818C6.55364 38.3818 5.82046 37.2309 5.81803 37.2277C5.65543 36.9518 5.3608 36.9226 5.34381 36.9205C4.33347 36.7989 4.03738 36.2967 3.91215 36.0829L3.31634 35.1499C3.12995 34.8608 2.86347 34.8364 2.85522 34.8355C2.28076 34.8031 2.00748 34.6739 1.76989 34.3262C1.76989 34.3262 1.18742 33.4624 1.18499 33.4581C0.898611 32.9864 0.997631 32.6489 1.12966 32.4485C1.40827 32.0376 1.91744 32.0065 2.12179 32H34.0614C34.9657 32 35.6964 32.2443 36.2367 32.7274C36.6247 33.0721 36.8919 33.5219 37.0303 34.0637C37.0327 34.0765 37.0703 34.1897 37.3436 34.1897H43.6566C43.9301 34.1897 43.9675 34.0767 43.9699 34.0637C44.1082 33.5219 44.3754 33.0721 44.7635 32.7274C45.3037 32.2443 46.0342 32 46.939 32H78.8786C79.083 32.0063 79.5919 32.0376 79.8703 32.4483C80.0025 32.6487 80.1013 32.9862 79.8149 33.4579C79.8125 33.4622 79.23 34.326 79.23 34.326C78.9924 34.6737 78.7194 34.8028 78.1447 34.8353C78.1367 34.8362 77.8697 34.8606 77.6836 35.1497L77.0878 36.0827C76.9625 36.2964 76.6664 36.7986 75.6564 36.9202C75.6394 36.9224 75.3447 36.9516 75.1819 37.2275C75.1795 37.2307 74.4465 38.3816 74.4465 38.3816C74.2322 38.7516 73.9322 38.889 73.3874 39.0387C73.3864 39.0387 60.029 42.5346 60.029 42.5346C59.5752 42.6542 59.3897 43.111 59.3897 43.111C59.0708 43.8458 58.6566 44.4507 56.5711 45.0116C56.5699 45.0124 45.6428 47.6699 45.6428 47.6699C45.5091 47.7095 44.2575 48.049 43.3148 47.2378C43.3148 47.2378 40.7588 45.0629 40.752 45.0585C40.751 45.0564 40.645 44.9601 40.5006 44.9601L40.4998 44.9603Z" fill="black"/>
<path d="M44.5236 33.6855C44.6347 33.2346 44.8469 32.8649 45.1516 32.5851C45.5736 32.1975 46.1614 32.0002 46.8952 32.0002H61.4712C60.9702 32.3441 60.7071 32.7791 60.6895 32.808C60.4893 33.1498 60.279 33.4866 60.0591 33.818H44.4722C44.5045 33.766 44.5238 33.6855 44.5236 33.6855ZM79.0364 32.6891L78.4674 33.5571C78.3611 33.718 78.2953 33.7908 77.8579 33.8162L60.596 33.8184C60.7678 33.5519 60.9337 33.2822 61.0936 33.0095C61.0984 33.0013 61.7098 32.0018 62.7955 32.0018L78.6089 32.0004C78.7748 32.0069 78.9904 32.0239 79.1044 32.1966C79.1181 32.2198 79.1507 32.268 79.1507 32.3549C79.1507 32.4319 79.1239 32.5414 79.0364 32.6891ZM76.9254 34.4098L76.3226 35.3804C76.2404 35.5239 76.1136 35.7457 75.711 35.8733C75.3744 35.9505 74.7046 35.9014 74.4727 35.8755L59.7902 34.9808C59.98 34.7227 60.1562 34.4743 60.3163 34.2386H77.0522C77.0083 34.2897 76.9654 34.3452 76.9254 34.4098ZM74.4293 36.548C74.4332 36.5438 73.8519 37.4825 73.7311 37.6773C73.7014 37.7138 73.5361 37.8786 72.9984 37.8131L58.929 36.082C59.1219 35.8507 59.3047 35.6212 59.4761 35.3994L74.4216 36.3089C74.4435 36.3114 74.5065 36.3178 74.5964 36.3251C74.5314 36.3931 74.4753 36.4679 74.4293 36.548ZM69.5905 39.0528C69.0608 39.1815 68.0249 39.0358 67.6651 38.9673L57.9974 37.1446C58.2091 36.9166 58.4121 36.6906 58.6048 36.4668L72.7339 38.2063L69.5905 39.0528ZM64.7983 40.3427C64.1184 40.5097 63.2312 40.2397 63.2227 40.2375L63.2121 40.2344C63.2121 40.2344 63.2109 40.2333 63.2097 40.2333L56.7389 38.4025C57.0516 38.1121 57.3559 37.8142 57.6515 37.5091L67.5726 39.3795C67.5943 39.3826 67.7975 39.421 68.0827 39.4577L64.7983 40.3427ZM59.7435 41.7045C59.2842 41.8191 58.6069 41.5758 58.3822 41.4719C58.3822 41.4719 56.6507 40.7284 54.8726 39.9655C55.3904 39.5763 55.89 39.1671 56.3701 38.739L63.0805 40.6384C63.0935 40.6428 63.2155 40.6793 63.4023 40.7178L59.7435 41.7045ZM58.7077 42.6333C58.5122 43.0929 58.308 43.5663 56.9316 44.0407C56.3633 44.2025 55.6875 43.7417 55.6817 43.7366C55.6793 43.7344 54.1469 42.7284 52.4019 41.5831C53.1186 41.177 53.8102 40.7346 54.4734 40.2581L58.1812 41.85C58.2017 41.8596 58.584 42.0367 59.0472 42.1159C58.8259 42.3472 58.7256 42.5862 58.7077 42.6333ZM53.5213 44.9325L53.0046 45.061C52.5694 45.1565 52.0385 44.7611 51.8688 44.5968C51.8688 44.5968 51.0349 43.8009 49.9632 42.7746C50.6506 42.4888 51.3213 42.1702 51.9725 41.8202L55.409 44.0754C55.423 44.086 55.6193 44.2209 55.9076 44.3357C55.1443 44.5263 53.5213 44.9323 53.5213 44.9325ZM48.9778 46.0692C48.615 46.1216 48.194 45.5754 48.072 45.3717L47.0356 43.7627C47.8792 43.5405 48.707 43.2708 49.5143 42.9549L51.5359 44.8898C51.5537 44.906 51.7774 45.1189 52.1019 45.2872L48.9778 46.0692ZM45.5372 46.9292C45.2929 46.9807 45.0868 46.9582 44.9096 46.86C44.5294 46.6466 44.4028 46.1559 44.3958 46.1271L43.8671 44.3775C44.7805 44.2618 45.6855 44.0955 46.577 43.8795L47.6735 45.582C47.7111 45.6428 47.9336 45.9986 48.2671 46.2472L45.5372 46.9292ZM43.3073 46.2943C43.3073 46.2943 41.8371 45.0075 41.3385 44.5723C42.0381 44.5499 42.7286 44.5028 43.4066 44.4299L43.9471 46.2189C43.9626 46.281 44.0706 46.6733 44.3707 46.9851C43.9565 46.877 43.8309 46.7645 43.3073 46.2943ZM40.73 44.163V38.7123H41.6784L43.2822 44.0197C42.4475 44.1074 41.5969 44.1557 40.73 44.163ZM37.7172 44.0197L39.322 38.7123H40.2707V44.1623C39.402 44.1557 38.5517 44.1066 37.7172 44.0197ZM37.296 46.6402C37.1097 46.8061 36.8797 46.9251 36.6284 46.9854C36.9308 46.6725 37.0359 46.2793 37.0518 46.2182L37.5926 44.4323C38.2705 44.504 38.961 44.5511 39.6605 44.5725C39.1004 45.0608 37.296 46.6402 37.296 46.6402ZM36.6036 46.1238C36.6036 46.1291 36.479 46.6413 36.0889 46.86C35.9119 46.9582 35.7065 46.9809 35.4623 46.9292L32.7321 46.247C33.0655 45.9971 33.2905 45.6415 33.329 45.5763C33.3278 45.5774 33.7915 44.8584 34.4205 43.8803C35.3124 44.0967 36.218 44.2626 37.1321 44.3772L36.6036 46.1238ZM32.0213 46.0692L28.8975 45.287C29.2215 45.1178 29.4462 44.9047 29.4633 44.8887C29.4633 44.8887 30.3563 44.0334 31.4847 42.9546C32.2919 43.2705 33.1194 43.5406 33.9627 43.7636L32.9305 45.3675C32.8049 45.5752 32.384 46.1216 32.0213 46.0692ZM27.9939 45.061L25.0913 44.3357C25.2694 44.2655 25.4383 44.177 25.5947 44.0721C25.5923 44.0743 27.2163 43.0082 29.0265 41.8204C29.6782 42.1701 30.3493 42.4886 31.037 42.7746L29.1301 44.5968C28.9606 44.7611 28.4295 45.1565 27.9939 45.061ZM24.0642 44.0409C22.6934 43.5663 22.488 43.0942 22.2931 42.6358C22.214 42.4453 22.0984 42.2694 21.952 42.1161C22.2544 42.0611 22.5478 41.9707 22.825 41.8469C22.8211 41.8481 24.679 41.0522 26.5268 40.2581C27.1888 40.7354 27.88 41.1778 28.5968 41.5831L25.322 43.7324C25.3114 43.7421 24.6325 44.205 24.0642 44.0409ZM21.2569 41.7045C21.1185 41.6667 19.5801 41.2523 17.5971 40.7178C17.7077 40.6959 17.817 40.6686 17.9245 40.6362C17.9187 40.6384 23.3622 39.0979 24.6298 38.739C25.1101 39.1666 25.6097 39.5755 26.1273 39.9646L22.6237 41.4688C22.392 41.5758 21.7162 41.8191 21.2569 41.7045ZM16.2048 40.3436C15.1083 40.0488 14.0119 39.7535 12.9157 39.4577C13.0873 39.4364 13.2581 39.4099 13.4278 39.3784C13.4269 39.3797 20.4319 38.0586 23.3489 37.5093C23.6448 37.8138 23.9488 38.1117 24.2605 38.4027L17.7825 40.2357C17.7678 40.2397 16.8844 40.5088 16.2048 40.3436ZM11.4135 39.0542C10.3646 38.7703 9.31538 38.4877 8.26573 38.2063L22.3968 36.4668C22.5897 36.6895 22.7917 36.9155 23.0032 37.144L13.3343 38.9675C12.9755 39.0358 11.9441 39.1815 11.4135 39.0542ZM8.00246 37.8133C7.46795 37.8788 7.30015 37.7169 7.26929 37.6784L6.56601 36.5427C6.52126 36.4646 6.46655 36.3917 6.40303 36.3255C6.4932 36.318 21.5262 35.3996 21.5262 35.3996C21.7038 35.6299 21.8857 35.8574 22.0718 36.082L8.00246 37.8133ZM5.28965 35.8731C4.88654 35.7457 4.75876 35.5239 4.67631 35.3801C4.42991 34.9958 4.10563 34.4213 3.94627 34.2382H20.6848C20.8552 34.4885 21.0307 34.736 21.2111 34.9803L6.52647 35.875C6.29598 35.9011 5.62598 35.9502 5.28965 35.8731ZM3.14631 33.818C2.7432 33.7904 2.65737 33.7466 2.53056 33.5555C2.532 33.5568 2.00449 32.7525 1.96254 32.6891C1.87502 32.5414 1.84609 32.4319 1.84994 32.3547C1.85959 32.1575 2.00593 32.0055 2.39072 32L18.2049 32.0013C19.2754 32.0013 19.9065 33.0093 19.9065 33.0093C20.0666 33.282 20.2329 33.5517 20.4054 33.818H3.14631ZM34.1037 32C34.839 32 35.4251 32.1973 35.8475 32.5851C36.1525 32.8647 36.364 33.2344 36.4765 33.6855C36.4765 33.6855 36.4992 33.7627 36.5281 33.8182H20.9416C20.7034 33.4595 20.3106 32.8083 20.3106 32.8083C20.2935 32.7795 20.03 32.3443 19.5287 32.0004L34.1037 32ZM56.6743 34.7921V34.2382H59.7734C59.6066 34.4778 59.4352 34.7146 59.2591 34.9485L56.6743 34.7921ZM56.6743 35.8054V35.2293L58.9372 35.3664C58.7702 35.5794 58.5913 35.7968 58.4049 36.0188L56.6743 35.8054ZM56.6743 36.8963V36.2298L58.0739 36.4022C57.8861 36.6156 57.6886 36.8308 57.483 37.0482C57.122 36.9799 56.8438 36.9283 56.6743 36.8963ZM56.6743 37.3259L57.1312 37.4113C56.9816 37.5633 56.8293 37.7131 56.6743 37.8604V37.3259ZM51.9532 38.7123H55.7355C55.35 39.0637 54.4401 39.7437 54.4102 39.7665C53.4907 39.3708 52.5938 38.9874 51.9532 38.7123ZM48.0277 38.7123H50.8702L54.0054 40.0579C53.3609 40.511 52.6899 40.9315 51.9954 41.3175C50.4823 40.3235 48.8881 39.2769 48.0277 38.7123ZM45.7151 38.7123H47.24L51.5621 41.5513C50.9339 41.8817 50.2873 42.1821 49.6252 42.4511C48.202 41.0906 46.4876 39.4502 45.7151 38.7123ZM43.7834 38.7123H45.0784L49.1736 42.6291C48.3974 42.925 47.6027 43.1783 46.7937 43.3876L43.7834 38.7123ZM43.2499 38.7123L46.3349 43.5009C45.4818 43.7034 44.6163 43.859 43.7429 43.967L42.1546 38.7121H43.2499V38.7123ZM37.7495 38.7123H38.8448L37.2565 43.9672C36.3833 43.8591 35.5178 43.7038 34.6645 43.5022C35.8203 41.709 37.3626 39.3131 37.7495 38.7123ZM35.9208 38.7123H37.2162L34.2057 43.3876C33.3962 43.1788 32.6013 42.925 31.8253 42.6278C33.4674 41.0584 35.4437 39.1685 35.9208 38.7123ZM33.7594 38.7123H35.2843L31.3757 42.4511C30.713 42.1819 30.0658 41.8816 29.4368 41.5513C31.3125 40.3193 33.2678 39.0347 33.7594 38.7123ZM26.589 39.7665C26.5545 39.7408 25.6485 39.0424 25.2637 38.7123H29.0455L26.589 39.7665ZM30.1292 38.7123H32.971L29.0036 41.3167C28.309 40.9314 27.6382 40.5112 26.9943 40.0579C28.4835 39.4182 29.8628 38.8268 30.1292 38.7123ZM24.3212 37.3259V37.856C24.1679 37.71 24.0172 37.5616 23.8692 37.4111C24.0507 37.3764 24.2026 37.3483 24.3212 37.3259ZM24.3212 36.2298V36.8961L23.5165 37.0482C23.3161 36.8359 23.1196 36.6205 22.927 36.4022L24.3212 36.2298ZM24.3212 35.2293V35.8054L22.5955 36.0188C22.4146 35.804 22.2376 35.5865 22.0646 35.3664L24.3212 35.2293ZM24.3212 34.7921L21.743 34.9485C21.5662 34.7149 21.3946 34.4781 21.2282 34.2382H24.3212V34.7921Z" fill="white"/>
<path d="M26.3014 35.1553H26.1666L24.7852 37.4814H25.1593L25.1652 37.468C25.277 37.1849 25.4211 36.9138 25.5609 36.6536L25.5899 36.5984H26.6582C26.823 36.8841 26.9733 37.1744 27.1087 37.4688L27.1149 37.4814H27.6313L26.3014 35.1553ZM25.6945 36.4209C25.7228 36.3696 26.0853 35.7302 26.1284 35.6545C26.171 35.7302 26.5407 36.3696 26.5697 36.4209H25.6945ZM27.7801 37.3159L27.7915 37.3249C27.9546 37.4589 28.3225 37.5214 28.5203 37.5214C29.1684 37.5214 29.6224 37.2066 29.6224 36.755C29.6224 36.3804 29.2458 36.2701 28.8818 36.1617C28.5585 36.0648 28.2511 35.9755 28.2511 35.6989C28.2511 35.4889 28.471 35.3372 28.7725 35.3372C29.0135 35.3372 29.1954 35.433 29.2877 35.6082L29.2939 35.6207H29.3762L29.5053 35.3271L29.491 35.3171C29.3149 35.1976 29.044 35.1553 28.8511 35.1553C28.2469 35.1553 27.8572 35.4093 27.8572 35.8036C27.8572 36.205 28.2548 36.3214 28.6049 36.4265C28.9215 36.5187 29.2185 36.6073 29.2185 36.8832C29.2185 37.139 28.9651 37.3406 28.6423 37.3406C28.3466 37.3406 28.1504 37.2446 27.9593 37.0097L27.9519 37.0007H27.8696L27.7801 37.3159ZM32.0614 35.2032H29.789V35.4428L29.8182 35.441C30.1249 35.4145 30.4333 35.4012 30.742 35.401V37.4887H31.1786V35.4022C31.4872 35.4022 31.782 35.4154 32.0577 35.441L32.0884 35.4436V35.2032H32.0614ZM33.627 35.1553C32.6631 35.1553 31.9888 35.6444 31.9888 36.3433C31.9888 37.0483 32.6445 37.5212 33.6186 37.5212C34.6257 37.5212 35.3035 37.0274 35.3035 36.2934C35.3037 35.5069 34.461 35.1553 33.627 35.1553ZM34.434 37.1153C34.2196 37.2861 33.9506 37.373 33.6305 37.373C32.9249 37.373 32.4685 36.9845 32.4685 36.3832C32.4685 35.717 32.9296 35.3036 33.6702 35.3036C34.0195 35.3036 34.3492 35.4193 34.553 35.6127C34.7769 35.8278 34.8225 36.0522 34.8225 36.3207C34.8238 36.3352 34.825 36.3515 34.825 36.367C34.825 36.5855 34.7067 36.8957 34.434 37.1153ZM38.3304 35.2032H38.0596V36.8893H38.0547C38.0391 36.8757 35.987 35.2032 35.987 35.2032H35.7783V37.4814H36.076V35.7185H36.0822C36.0981 35.7321 37.9525 37.2773 37.9525 37.2773L38.1851 37.4816H38.3574V35.2032H38.3304ZM43.2209 35.2032H43.1138L42.3807 36.2039C42.3807 36.2039 41.9168 36.8404 41.8746 36.8975C41.4224 36.3297 41.0151 35.7321 40.6685 35.2141L40.6613 35.2032H40.5074L40.5049 35.2223C40.4617 35.5587 40.2014 36.93 40.0876 37.4589L40.0817 37.4814H40.4486V37.4619C40.4486 37.1409 40.5242 36.6624 40.6045 36.1552L40.6529 35.8415C40.7042 35.9154 41.2737 36.7294 41.4911 37.0647L41.7373 37.4464H41.8196L41.8265 37.4337C42.0797 36.9959 42.4372 36.4961 42.9263 35.8379C42.9955 36.2304 43.0872 37.0142 43.1381 37.4633L43.1408 37.4816H43.6044L43.6004 37.4591C43.4958 36.9065 43.3815 36.1751 43.2479 35.2225L43.2452 35.2034H43.2209V35.2032ZM45.2965 35.1553H45.1606L43.7787 37.4814H44.155L44.16 37.468C44.2723 37.1823 44.4171 36.9102 44.5577 36.6478C44.5577 36.6478 44.575 36.6154 44.5834 36.5982H45.6525C45.8169 36.8839 45.967 37.1743 46.1022 37.4686L46.1082 37.4813H46.6251L45.2965 35.1553ZM44.6888 36.4209C44.7171 36.3696 45.0798 35.7302 45.1232 35.6545L45.5645 36.4209H44.6888ZM47.9542 36.356C48.5004 36.2729 48.8271 36.0387 48.8271 35.7222C48.8271 35.3744 48.5026 35.2034 47.8339 35.2034H46.8854V37.4816H47.321V36.3896H47.4482C47.5609 36.4901 47.6738 36.5904 47.7871 36.6906C47.7856 36.6894 48.3 37.1905 48.3 37.1905L48.5817 37.4816H49.1521C49.1521 37.4814 48.006 36.4039 47.9542 36.356ZM47.321 36.2259V35.3652C47.5005 35.3589 47.7789 35.3499 47.9299 35.3682C48.2321 35.405 48.3856 35.5378 48.3856 35.761C48.3856 35.99 48.186 36.157 47.8496 36.208C47.6604 36.2365 47.4318 36.2313 47.321 36.2259ZM51.3467 35.2032H49.0733V35.4428L49.1031 35.441C49.4094 35.4145 49.7175 35.4012 50.0258 35.401V37.4887H50.4646V35.4022C50.7721 35.4022 51.0676 35.4154 51.3435 35.441L51.374 35.4436V35.2032H51.3467ZM51.7328 37.4814H52.1446V35.2032H51.7328V37.4814ZM55.068 35.2032V36.8893H55.0643C55.0482 36.8757 52.9967 35.2032 52.9967 35.2032H52.7874V37.4814H53.0854V35.7185H53.0906C53.1065 35.7321 54.9634 37.2773 54.9634 37.2773L55.196 37.4816H55.3658V35.2032H55.068Z" fill="white"/>
</g>
</svg>
