<svg width="80" height="80" viewBox="0 0 80 80" fill="none" xmlns="http://www.w3.org/2000/svg">
<mask id="mask0_240_147" style="mask-type:alpha" maskUnits="userSpaceOnUse" x="0" y="0" width="80" height="80">
<rect width="80" height="80" fill="#D9D9D9"/>
</mask>
<g mask="url(#mask0_240_147)">
<mask id="mask1_240_147" style="mask-type:alpha" maskUnits="userSpaceOnUse" x="1" y="5" width="80" height="70">
<path fill-rule="evenodd" clip-rule="evenodd" d="M44.5179 5.54688C25.5112 5.54688 10.1523 20.8439 10.1523 39.7002C10.1523 40.3979 10.1523 41.0326 10.2163 41.6674H5.73661C5.48063 41.6674 5.35263 41.7918 5.22336 41.9848C5.16065 42.1721 1.19357 49.0919 1.06366 49.2848C1.00094 49.4721 1.00094 49.5388 1.19357 49.5388H11.6229C15.9125 63.5682 29.0316 73.7863 44.5806 73.7863C63.5891 73.7863 79.0121 58.4892 79.0121 39.6329C78.9481 20.8439 63.5252 5.54688 44.5179 5.54688ZM19.9423 49.5394H29.0956L24.6793 57.1568C22.7594 54.9351 21.0955 52.3959 19.9423 49.5394ZM44.5185 65.9765C37.2883 65.9765 30.7595 63.12 26.0225 58.4892H33.4486C33.4486 58.4892 54.8198 21.0991 54.9498 20.9068C55.0771 20.7817 55.0138 20.6567 54.8198 20.6567H46.1184C45.9277 20.6567 45.9277 20.7195 45.8611 20.7817C45.7984 20.9068 33.7685 41.6674 33.7685 41.6674H18.0897C18.0231 41.0326 18.0231 40.3344 18.0231 39.6996C18.0231 25.163 29.8623 13.356 44.5185 13.356C52.0072 13.356 58.7268 16.4633 63.5891 21.4165C61.4773 24.9078 52.134 40.7152 50.8541 42.9992C50.1501 41.35 46.7583 41.6674 44.9677 41.6046C44.1985 42.8742 40.6788 49.5394 40.6788 49.5394H44.3905C46.1184 49.5394 46.3104 51.3136 45.6077 52.4588C44.9012 53.5982 42.1513 58.4892 42.1513 58.4892H51.1747C51.1747 58.4892 62.2465 39.3155 68.5168 28.4614C70.1794 31.8905 71.0766 35.6992 71.0766 39.7002C71.0766 54.1702 59.1735 65.9765 44.5185 65.9765Z" fill="#ED1A3B"/>
</mask>
<g mask="url(#mask1_240_147)">
<rect x="-4.45312" y="-3.88867" width="98.1818" height="90.6667" fill="white"/>
</g>
</g>
</svg>
